<svg viewBox="0 0 195 155" height="155" width="195" xmlns="http://www.w3.org/2000/svg">
  <g>
    <path fill="#DAC165" d="M 33.67 147.33 C33.30,146.97 33.00,145.67 33.00,144.46 C33.00,140.75 30.07,133.68 27.36,130.85 C24.96,128.35 22.54,127.04 6.22,119.43 C1.29,117.13 0.00,116.07 0.22,114.51 C0.77,110.56 10.46,107.60 33.20,104.44 C37.70,103.82 37.85,103.69 36.59,101.64 C35.86,100.46 34.24,96.51 32.98,92.84 C30.96,86.96 30.35,86.12 27.69,85.59 C26.03,85.26 24.52,85.15 24.31,85.35 C22.78,86.89 19.91,98.03 20.34,100.74 C20.84,103.79 20.69,104.00 18.00,104.00 C14.84,104.00 13.04,102.31 15.29,101.44 C16.41,101.01 16.51,99.95 15.79,96.20 C15.28,93.62 14.48,89.25 13.99,86.50 C12.74,79.41 9.02,60.28 7.92,55.31 C6.90,50.67 6.69,42.65 7.56,41.77 C8.32,41.01 14.00,43.92 14.00,45.07 C14.00,45.58 13.04,46.00 11.87,46.00 C9.93,46.00 9.80,46.38 10.37,50.25 C11.62,58.75 15.76,80.74 17.26,86.86 L 18.32 91.23 L 19.73 88.55 C20.82,86.47 20.87,85.55 19.95,84.44 C19.02,83.32 19.12,82.89 20.43,82.39 C22.66,81.53 27.35,72.24 27.43,68.50 C27.47,66.81 28.04,65.50 28.75,65.50 C29.43,65.50 31.57,63.29 33.49,60.59 C36.09,56.92 36.71,55.35 35.90,54.38 C35.31,53.67 35.10,52.65 35.43,52.11 C36.35,50.63 45.00,53.88 45.00,55.70 C45.00,56.79 44.34,57.05 42.68,56.63 C40.71,56.14 39.69,57.00 35.93,62.28 C31.79,68.09 31.51,68.88 31.73,74.31 C31.85,77.50 32.21,80.54 32.53,81.06 C32.86,81.58 36.21,82.00 39.99,82.00 C45.97,82.00 46.95,81.74 47.50,80.01 C47.86,78.87 47.46,77.07 46.56,75.79 C44.78,73.24 44.53,70.41 46.00,69.50 C46.55,69.16 47.44,70.03 47.98,71.44 C48.51,72.85 49.36,74.00 49.86,74.00 C50.37,74.00 52.65,71.02 54.93,67.38 C58.79,61.22 58.97,60.62 57.48,58.97 C55.00,56.23 57.28,55.76 62.41,57.96 C67.34,60.07 68.71,62.56 64.50,61.76 C62.89,61.45 62.00,61.73 62.00,62.56 C62.00,63.26 61.62,63.98 61.15,64.17 C59.52,64.81 52.00,77.73 52.00,79.89 C52.00,82.01 52.29,82.06 62.68,81.78 L 73.36 81.50 L 74.69 78.23 C76.01,74.99 75.99,74.96 73.51,75.59 C70.05,76.46 70.36,75.19 74.67,70.96 C77.53,68.15 78.71,65.84 80.06,60.43 C81.01,56.62 82.69,51.25 83.80,48.50 C84.91,45.75 86.38,41.92 87.07,40.00 C92.53,24.74 97.09,17.46 100.72,18.21 C103.33,18.74 102.81,23.34 99.27,31.02 C97.62,34.58 95.45,39.75 94.43,42.50 C93.41,45.25 91.70,49.08 90.62,51.00 C87.68,56.26 90.03,53.47 96.09,44.51 C102.79,34.63 115.18,21.46 120.21,18.89 C122.28,17.84 126.69,16.69 130.00,16.34 C134.98,15.82 136.37,16.02 138.01,17.51 C141.73,20.88 140.16,31.62 134.76,39.80 C129.06,48.42 123.80,58.16 119.55,67.99 C117.05,73.76 115.00,78.59 115.00,78.74 C115.00,79.51 119.76,78.84 120.66,77.94 C121.40,77.20 123.10,77.65 126.37,79.48 L 131.03 82.08 L 160.76 81.95 L 190.50 81.82 L 190.82 84.99 C191.08,87.61 190.47,88.76 187.32,91.57 C174.89,102.66 152.73,110.16 121.41,113.87 C112.07,114.98 104.26,116.43 102.50,117.37 C100.85,118.26 98.94,118.99 98.25,118.99 C96.48,119.00 96.70,115.99 98.63,113.86 C99.81,112.56 108.91,87.42 108.99,85.25 C109.00,85.11 108.39,85.00 107.65,85.00 C106.09,85.00 99.33,92.26 90.25,103.65 C81.30,114.89 78.17,118.00 75.86,118.00 C74.64,118.00 73.60,117.17 73.28,115.97 C72.80,114.14 72.24,114.42 67.55,118.72 C64.68,121.35 59.45,125.92 55.92,128.88 C52.39,131.84 48.83,135.26 48.00,136.49 C42.57,144.55 35.92,149.59 33.67,147.33 ZM 42.30 138.25 C47.33,131.99 51.09,128.32 57.96,122.97 C60.41,121.06 64.80,117.18 67.71,114.34 C72.19,109.96 73.00,108.61 73.00,105.52 C73.00,102.52 72.69,101.95 71.25,102.36 C70.29,102.63 68.08,103.13 66.35,103.48 C64.41,103.87 63.01,104.86 62.70,106.06 C62.10,108.33 59.00,108.70 59.00,106.50 C59.00,104.70 53.51,104.49 45.06,105.97 C42.00,106.51 33.88,107.69 27.00,108.60 C15.18,110.16 6.51,112.25 4.68,113.97 C4.23,114.39 8.97,117.24 15.20,120.29 C29.18,127.14 32.40,130.06 34.74,137.99 C35.71,141.30 36.77,144.00 37.09,144.00 C37.42,144.00 39.77,141.41 42.30,138.25 ZM 81.48 109.25 C84.01,106.38 84.73,105.00 83.69,105.00 C80.93,105.00 76.00,109.99 76.00,112.79 C76.00,114.31 76.36,115.01 76.86,114.45 C77.33,113.93 79.41,111.59 81.48,109.25 ZM 120.14 110.96 C146.79,108.28 174.26,99.46 183.24,90.72 C189.49,84.64 190.71,85.00 163.87,85.00 L 139.50 85.01 L 142.75 86.99 C146.19,89.08 147.21,91.61 144.25,90.68 C139.04,89.05 133.38,86.75 132.55,85.93 C132.03,85.42 127.29,85.00 122.03,85.00 L 112.45 85.00 L 108.26 97.65 C105.96,104.61 104.31,110.69 104.60,111.15 C105.27,112.25 107.60,112.22 120.14,110.96 ZM 89.73 92.83 C93.18,89.07 96.00,85.85 96.00,85.68 C96.00,85.51 92.21,85.31 87.58,85.25 L 79.15 85.13 L 78.49 89.05 C78.13,91.20 78.13,94.31 78.49,95.97 C78.96,98.08 78.68,99.46 77.58,100.56 C76.71,101.43 76.00,103.06 76.00,104.18 C76.00,106.00 76.39,105.87 79.73,102.93 C81.78,101.13 86.28,96.59 89.73,92.83 ZM 56.75 101.52 C57.04,101.30 54.61,95.85 52.51,92.00 C50.84,88.94 47.46,88.17 46.75,90.70 C46.47,91.69 45.30,94.87 44.14,97.76 L 42.02 103.01 L 49.26 102.37 C53.24,102.01 56.61,101.63 56.75,101.52 ZM 66.38 99.45 C66.72,98.56 66.56,98.16 65.99,98.51 C65.44,98.84 65.00,99.54 65.00,100.06 C65.00,101.50 65.72,101.18 66.38,99.45 ZM 43.94 89.25 C43.97,88.56 43.44,88.00 42.75,87.99 C42.06,87.98 39.83,87.70 37.78,87.36 L 34.06 86.75 L 35.64 91.12 C39.31,101.34 38.99,101.11 41.58,95.50 C42.84,92.75 43.90,89.94 43.94,89.25 ZM 63.77 96.47 L 66.04 92.97 L 63.77 92.13 C62.52,91.67 60.07,91.02 58.32,90.69 L 55.14 90.08 L 57.71 95.04 C59.13,97.77 60.56,99.99 60.89,99.99 C61.23,99.98 62.52,98.40 63.77,96.47 ZM 73.82 97.33 C73.34,94.86 71.33,94.62 70.72,96.96 C70.32,98.51 70.67,99.00 72.17,99.00 C73.48,99.00 74.04,98.44 73.82,97.33 ZM 74.68 90.81 C74.36,90.01 74.13,90.25 74.08,91.42 C74.04,92.47 74.27,93.06 74.60,92.73 C74.94,92.40 74.97,91.53 74.68,90.81 ZM 69.96 88.07 C70.53,87.00 71.00,85.88 71.00,85.57 C71.00,85.25 66.86,85.00 61.80,85.00 C51.48,85.00 51.07,86.06 60.50,88.33 C68.60,90.28 68.78,90.28 69.96,88.07 ZM 29.19 78.85 L 28.73 75.70 L 27.40 78.10 C25.61,81.34 25.68,82.00 27.83,82.00 C29.31,82.00 29.57,81.40 29.19,78.85 ZM 98.00 78.82 C98.00,74.29 95.87,69.00 94.05,69.01 C91.28,69.03 80.10,78.78 80.02,81.25 C80.01,81.66 84.05,82.00 89.00,82.00 L 98.00 82.00 L 98.00 78.82 ZM 107.54 80.85 C110.02,79.95 111.42,78.29 113.91,73.23 C115.66,69.67 116.93,66.59 116.72,66.39 C116.51,66.18 113.90,68.82 110.92,72.26 C101.58,83.00 101.58,83.01 107.54,80.85 ZM 112.63 66.00 C119.43,58.89 124.53,50.28 127.13,41.55 C130.46,30.39 130.84,29.62 132.39,30.91 C134.45,32.62 137.19,27.83 136.81,23.20 L 136.50 19.50 L 130.67 19.70 C120.00,20.07 111.02,27.90 96.23,49.73 C87.84,62.10 86.46,64.70 89.98,61.52 C91.81,59.86 92.01,59.85 92.60,61.40 C92.98,62.39 92.47,63.94 91.37,65.18 C89.52,67.27 89.53,67.28 91.69,66.14 C96.21,63.77 101.00,69.38 101.00,77.02 C101.00,78.72 101.54,78.43 104.18,75.28 C105.94,73.20 109.73,69.03 112.63,66.00 ZM 88.54 48.50 C89.78,45.75 91.37,41.92 92.06,40.00 C92.76,38.08 94.60,33.71 96.16,30.29 C99.27,23.48 99.52,22.56 97.95,23.53 C96.73,24.29 92.15,34.10 90.97,38.50 C90.53,40.15 88.78,44.81 87.08,48.85 C85.39,52.90 84.03,56.72 84.07,57.35 C84.10,57.98 84.62,57.38 85.21,56.00 C85.80,54.62 87.30,51.25 88.54,48.50 ZM 134.00 34.75 C134.00,33.10 132.24,34.98 131.67,37.23 C131.12,39.42 131.15,39.43 132.55,37.56 C133.35,36.49 134.00,35.23 134.00,34.75 Z"></path>
  </g>
</svg>
